<?xml version="1.0" encoding="utf-8"?>
<!-- Generator: Adobe Illustrator 21.0.2, SVG Export Plug-In . SVG Version: 6.00 Build 0)  -->
<svg version="1.0" xmlns="http://www.w3.org/2000/svg" xmlns:xlink="http://www.w3.org/1999/xlink" x="0px" y="0px"
	 viewBox="0 0 484.5 384.1" style="enable-background:new 0 0 484.5 384.1;" xml:space="preserve">
<style type="text/css">
	.st0{display:none;}
	.st1{display:inline;opacity:4.000000e-02;}
	.st2{fill:#DD434E;}
	.st3{display:inline;fill:#DD434E;}
	.st4{fill:#B3B3B3;}
	.st5{fill:#999999;}
	.st6{fill:#E6E6E6;}
	.st7{fill:#FFFFFF;}
	.st8{display:inline;}
	.st9{fill:#65C8D0;}
	.st10{fill:#C69C6D;}
	.st11{fill:#F9D7C0;}
</style>
<g id="Ebene_1">
</g>
<g id="nur_Umhang_Orientierung" class="st0">
	<g class="st1">
		<path class="st2" d="M385.1,104.2c-4.8,15.9-9.5,31.7-14.2,47.6c-5.3,17.8-10.8,36-20.8,51.7c-8.3,13-19.5,24-31.3,33.9
			c-16.3,13.7-34,25.6-52.2,36.8C200.3,314.6,8.6,369.5-68.8,375.2c0,0,1.5-55.1,1.8-58.8c0.1-1.2,0.2-2.6,0.3-4.1
			c0.2-3.4,0.4-7.4,0.5-11.7c0-2,0-4.1,0-6.2c0,0,0,0,0,0c0-0.2,0-0.3,0.1-0.5c0.6-11.4-6.4-34.9-6.4-31.1c-1.5-3.2-3.2-6.4-5-9.6
			c-2.5-4.4-5-8.8-7.5-13.3c-1-1.8-1.9-3.5-2.8-5.3v0c-2.3-4.6-4.3-9.2-5.7-14.1c-0.4-1.4-0.8-2.9-1.1-4.3c0,0,0-0.1,0-0.1
			c-6.3-28.4,9.3-59.2-0.4-86.7c-7.3-20.9-27.7-35-35.6-55.7c0,0,243,59.2,288.9,52.7c55.9-7.9,126.7-16.5,165.3-35.3L385.1,104.2z"
			/>
	</g>
	<path class="st3" d="M-59.2,183.8c0,0,6.8,24.4,85.9,23.4c276-3.4,295.3-116.2,300.8-112.4c5.5,3.8,59.6,8.5,59.6,8.5
		s-134,160.5-357.5,173.2c-95.6,5.4-85.7-18.2-85.7-18.2L-59.2,183.8z"/>
</g>
<g id="Ebene_6">
	<path class="st2" d="M130.6,121.1c0,0-9.8-3.1-16.2-5.1c-1.9,7.7-14.7,73.7-4.6,92.1c8.6,15.6,32.9,16.4,42,3
		c7.7-11.3,13.6-79.3,13.9-87.5c-5.3-0.4-11,0.2-16.8,0c-0.5,0-5.7,67.8-9.9,74.6c-4.4,7.1-13.1,5.9-14.6-3.1
		C121.7,178.2,130.6,121.1,130.6,121.1z"/>
	<path class="st2" d="M289,247.2c0.6,2.1,10.5,27.8,10.5,27.8c0.5,0,11.1-4.6,11.4-4.7c-0.5-1.2-21.6-59.9-21.6-59.9l-11.9,4.2
		c0,0,6.3,16.9,7.2,19.5c-0.4,0.1-10.2,4.3-10.6,4.5c-1.5-3.6-7.5-20.2-7.5-20.2s-7.6,2.6-13,4.7c1.3,4.5,23,61.9,23,61.9l12.5-5.3
		c0,0-8.8-22.1-10.7-28C281.1,250.4,284.1,249.2,289,247.2z"/>
	<path class="st2" d="M236.8,134c2,0,15.1-1.3,16.6-1.4c2.5-0.3,3.3-0.3,3.3-2.4c0-2.4,0.2-8.7,0.1-11.1c0-0.8-0.4-2-1.9-2.3
		c-3.9-0.6-28.6,1.7-30.6,2.4c-1.4,0.4-1.3,1.3-1.3,1.9c-0.1,8.3,0.1,81.3,0.1,84.6c0,2.6,0.3,6,4.1,5.5c6.3-0.9,23.1-3.9,29.7-5.1
		c2-0.8,2.5-2.1,2.6-3.8c0.2-2.8,0-6.7,0.2-9.5c-0.3-1.5-0.4-2.5-2.2-2.2c-3.2,0.4-16.9,2.5-19.4,2.8c-0.4-13.7-0.6-26.4-0.6-26.4
		s15-1.7,16.8-1.7c1.9-0.1,2.8-0.1,2.8-2.8c-0.1-3.3,0.1-6.8,0-8.7c-0.1-1.4-0.1-2.2-2.6-2.2c-2.3-0.1-12.2,0.7-17.4,1.1
		C236.6,147.2,236.7,138.2,236.8,134z"/>
	<path class="st2" d="M67.9,209.7c2,1.4,9.7,3.5,14.4,3.6c1.9,0.1,2.9-0.8,2.9-2.9c0-3.9,6-74.5,7.3-77.9c1.2-3.1,5.8-2.1,7.9-1.7
		c4.3,0.9,4.9-0.6,5.9-5c0.5-2.1,0.4-1.6,1.4-6.1c1.6-5.6,1-6.7-4.5-8.5c-6.5-2.1-33.1-11-35.4-11.6c-4.6-1-5.6,2.6-6,5.5
		c-0.6,3.8-1.7,8.6-1.7,11.4c-0.1,3.7,3.5,3.7,7.9,5.3c3.8,1.4,4.6,3,4.5,5.1c-0.1,2-6.5,68.3-6.7,79.5
		C65.8,208,66.2,208.5,67.9,209.7z"/>
	<path class="st2" d="M327.3,118.6c0.3,4.9-0.4,56.9-0.4,63.9c0,2.9-0.9,6.6,3.3,6.3c3.8-0.2,5.5-0.5,8.2-1.3
		c2.4-0.7,2.7-0.8,2.8-3.5c0.2-9.6-1-57.5-1.1-67.2c7.6-1.7,10.9-1.4,11.6-1.9c0.8-0.7,1.6-1.8,1.7-2.8c0.1-1.7-0.5-3.5-0.5-5.2
		c-0.2-4.5-1-4.8-5.4-4.3c-1.5,0.1-22.5,2.7-29.8,3.9c-3.2,0.6-2.9,1.3-2.9,2.8c0,1.4,0.2,4.3,0.4,7.1c0,1.3,0.2,3.4,1.4,3.4
		C319.4,119.7,324.8,118.9,327.3,118.6z"/>
	<g>
		<path class="st2" d="M107.2,231.2c-22.7,0.2-30.4,24.5-30.6,53.2c-0.1,28.4,4.8,55.2,34.2,54.9c22.2-0.2,26.2-23.4,26.2-51
			C137,270.9,133.4,231,107.2,231.2z M107.3,314.9c-12.7,0.1-14-14.8-14-28c0.1-13.4,4.2-28.3,13.9-28.4c11.3-0.1,12,22.1,12,30.2
			C119.4,301.6,116.9,314.8,107.3,314.9z"/>
	</g>
	<path class="st2" d="M7.9,168.3c2.6-2.2,6.9-2.5,9.1,0.4c1,1.4,5.7,14.1,15.2,14.1c5.1,0,7.7-3.9,7.7-10.5
		c0-10.4-21.3-17.6-29.5-30.3c-7.5-11.7-6.7-35.1,5.1-46.3c11.5-11,22.7-7.5,28.9-4.6c3.9,1.8,7,4.5,9.5,8.1
		c4.3,6.2,1.2,19.7-0.8,20.9c-2.4,1.5-6.9,1.6-9.2,0c-2.4-1.7-3.3-3.3-3.8-6c-0.4-2-1.5-5.5-5.5-5.6c-6,0-9.9,4.6-9.9,12.2
		c-0.1,14.8,18.6,17.3,31.3,32.7c6.6,8.5,7,24.5,3,33.9C50,206.7,26,206.3,16,198.1C6,190.3-1.6,176.6,7.9,168.3z"/>
	<path class="st2" d="M180.9,121.4c-3.8,0-5.8,2.4-6.3,6.2c-0.8,6.5-3.9,76.9-4,80.7c-0.1,3.8,2.9,5.2,4.8,5.2
		c5.9,0.2,43.4,4.2,43.4-45C218.6,116.9,200,121.1,180.9,121.4z M204.2,166.9c-0.7,34.3-13.5,31.1-16.9,30.4
		c-3.8-0.8,1.1-58.1,1.1-58.1S204.8,133.4,204.2,166.9z"/>
	<path class="st2" d="M292.4,146c-0.1-1.8-1.9-20.4-2.7-31.4c-0.1-1.2,0.2-2,1.5-2.2c3.1-0.4,9.9-2.5,13.4-2.9
		c3.8-0.5,4.1-0.7,4.1,3.1c-0.1,11.4,1.5,69.8,0.7,79.7c-0.1,0.7-1,1.7-1.7,1.9c-3.3,1-13.6,3.2-14.9-2
		c-2.9-11.4-11.6-37.6-12.3-38.3c0,2.1,2.5,43,2.3,45.1c-0.1,1-1.6,1.9-3.6,2.1c-3.8,0.4-5.1,0.5-8.9,1c-2.3,0.3-4.4-0.2-5-2.9
		c-0.2-5.3-3-70.8-2.9-81.1c-0.1-1.9,0.2-2.4,1.6-2.6c2.9-0.5,11-0.6,13.3-0.8c1.3-0.1,2.4,0.5,3,1.8
		C283.2,121.3,289.6,138.5,292.4,146z"/>
	<path class="st2" d="M39.9,255.5c8.3,0,6.4,12,12.8,14.3c5.8,1.5,12,0.5,14.4-5.9c1.4-6.3-1.7-34-27.5-34.3
		c-33,1.2-31.5,42.5-31.7,56.8c-0.1,4.5-1.5,60.1,30.3,60.6c32.9-0.1,32.1-28.9,29.6-35.7c-1.7-6-11.5-11.3-18.6-1.4
		c-3.8,5.3-1.9,11.4-9.3,11.4c-8.1,0-9.2-24.1-9.3-33.8C30.5,280.9,31.2,255.6,39.9,255.5z"/>
	<g>
		<path class="st2" d="M172.8,230.6c-26.3,1.9-25.9,100.9-25.9,100.9l19.6-5.6l0.9-17.5l20.7-3.6l4.3,16.2l21.5-6.9
			C213.9,314.2,194.2,229,172.8,230.6z M167.8,288c0,0-0.6-28.5,7.1-29c6-0.3,10.3,26.1,10.3,26.1L167.8,288z"/>
	</g>
	<path class="st2" d="M229,244c6.2-1.5,7.4,9.3,17.5,8c6.4-1.6,6.4-5.8,5.2-10c-2-7.2-14.8-18.7-29.4-15.3
		c-13.2,4.6-17.9,24.3-12.6,47.1c6.9,20.8,17.8,30.2,36.6,26.7c17.3-4.3,16.7-26.3,12.5-32.1c-4-9.3-15.7-6.9-15.1,1.6
		c0.4,7.1,1.3,11.3-1.7,12.1c-7.7,2.1-12.6-7.6-14.8-15.1S220.6,248.1,229,244z"/>
</g>
<g id="Ebene_7" class="st0">
	<g class="st8">
		<g>
			<path d="M16.8,118.4c8.9,3,18.4,5.6,27.1,9.4c1.7,0.8,3.3-1.8,1.5-2.6c-8.9-3.9-18.6-6.5-27.8-9.7
				C15.7,114.9,15,117.7,16.8,118.4L16.8,118.4z"/>
		</g>
	</g>
	<g class="st8">
		<g>
			<path d="M43.2,125.9c-1.1,4.6-2.3,9.3-3.4,13.9c-0.5,1.9,2.4,2.7,2.9,0.8c1.1-4.6,2.3-9.3,3.4-13.9
				C46.5,124.8,43.6,124,43.2,125.9L43.2,125.9z"/>
		</g>
	</g>
	<g class="st8">
		<g>
			<path d="M33.9,140.8c2.4,0.2,4.7,0.4,7.1,0.6c1.9,0.2,1.9-2.8,0-3c-2.4-0.2-4.7-0.4-7.1-0.6C32,137.6,32,140.6,33.9,140.8
				L33.9,140.8z"/>
		</g>
	</g>
	<g class="st8">
		<g>
			<path d="M15.3,117.2c0.1,2.6-0.6,5.1-0.9,7.7c-0.4,3.1-0.3,6.1-1.1,9.2c-0.5,1.9,2.4,2.7,2.9,0.8c0.7-2.9,0.8-5.8,1.1-8.8
				c0.3-3,1.1-5.9,1-9C18.2,115.3,15.2,115.3,15.3,117.2L15.3,117.2z"/>
		</g>
	</g>
	<g class="st8">
		<g>
			<path d="M14.2,135.2c1.2,0.5,2.2,0.6,3.4,0.5c1.5-0.1,2.9,0.1,4.4,0.5c1.9,0.5,2.6-2.4,0.8-2.9c-1.2-0.3-2.4-0.6-3.7-0.6
				c-1.1,0-2.5,0.3-3.5-0.1C14,131.8,12.4,134.4,14.2,135.2L14.2,135.2z"/>
		</g>
	</g>
	<g class="st8">
		<g>
			<path d="M14.7,222.9c4.1,0.2,8.2,0.4,12.2,0.8c1.9,0.2,1.9-2.8,0-3c-4.1-0.4-8.2-0.7-12.2-0.8C12.8,219.8,12.8,222.8,14.7,222.9
				L14.7,222.9z"/>
		</g>
	</g>
	<g class="st8">
		<g>
			<path d="M4.7,219.7c2.9,0.6,5.8,1.4,8.7,2.3c1.9,0.6,2.6-2.3,0.8-2.9c-2.9-0.9-5.8-1.6-8.7-2.3C3.7,216.4,2.9,219.3,4.7,219.7
				L4.7,219.7z"/>
		</g>
	</g>
	<g class="st8">
		<g>
			<path d="M32.5,139.4c-1,7.4-1.5,15-2.6,22.4c-0.2,1.6-0.9,3-0.9,4.6c0,1.2,0.8,2.1,0.7,3.4c0,1-0.7,2.1-0.9,3.1
				c-0.3,1.6-0.1,3.3-0.1,4.9c0.1,3.5-0.7,6.9-0.7,10.4c0,4.2-0.1,7.5-1.3,11.6c-2.1,7-1.7,14.8-2.1,22.1c-0.1,1.9,2.9,1.9,3,0
				c0.4-7.8,0.4-15.4,2.6-22.9c0.8-2.8,1.1-5.2,1-8.1c-0.2-3.6,0.5-6.9,0.6-10.5c0.2-6,0.9-11.7,1.3-17.5c0.6-7.5,1.3-14.9,2.4-22.4
				C35.6,138.3,32.7,137.5,32.5,139.4L32.5,139.4z"/>
		</g>
	</g>
	<g class="st8">
		<g>
			<path d="M19.7,135.8c0.6,3.2-1.3,6.6-0.9,9.9c0.5,4-0.9,7-1.6,10.8c-0.6,3.3,0.6,6,0.6,9.4c-0.1,3.7-1.8,7.2-1.8,10.9
				c-0.2,8.2-1.3,16.2-2.4,24.4c-0.6,4.1-1.1,8.2-1.7,12.4c-0.3,2.3-0.7,4.1,0.3,6.2c0.8,1.7,3.4,0.2,2.6-1.5
				c-1.4-2.9,0.8-10.2,1.3-13.4c0.5-3.8,1-7.6,1.5-11.4c0.5-3.5,1.1-7.1,1.4-10.6c0.4-3.9,0-7.5,0.9-11.5c0.6-2.5,1.1-4.9,0.8-7.5
				c-0.3-2.5-0.9-4.6-0.4-7.2c0.3-1.8,1.1-3.4,1.4-5.2c0.5-2.3,0.1-4.2,0-6.5c-0.2-3.6,1.6-6.4,0.9-9.9
				C22.2,133.1,19.3,133.9,19.7,135.8L19.7,135.8z"/>
		</g>
	</g>
	<g class="st8">
		<g>
			<path d="M16.7,116c-4.2-1.9-8.7-3.8-13.2-4.7c-1.9-0.4-2.7,2.5-0.8,2.9c4.3,0.8,8.5,2.6,12.5,4.4C16.9,119.3,18.4,116.7,16.7,116
				L16.7,116z"/>
		</g>
	</g>
	<g class="st8">
		<g>
			<path d="M-0.1,113.3c-0.1,2.9,0.9,5.7,0.8,8.5c-0.1,3.1-0.9,6-0.8,9.1c0.1,1.9,3.1,1.9,3,0c-0.1-3.1,0.7-6,0.8-9.1
				c0-2.9-0.9-5.7-0.8-8.5C2.9,111.4-0.1,111.4-0.1,113.3L-0.1,113.3z"/>
		</g>
	</g>
	<g class="st8">
		<g>
			<path d="M1.2,132.3c4.8-0.2,9.4,0.6,14,2.3c1.8,0.7,2.6-2.2,0.8-2.9c-4.8-1.8-9.7-2.5-14.7-2.4C-0.7,129.4-0.7,132.4,1.2,132.3
				L1.2,132.3z"/>
		</g>
	</g>
	<g class="st8">
		<g>
			<path d="M9,132.7c-0.3,3.8-0.7,7.6-1,11.4c-0.3,3.2-1.2,6.2-1.8,9.2c-0.5,2.7,0.5,5.8,0.7,8.5c0.3,3.5,0.3,7.1,0.2,10.7
				c-0.5,15-1.7,30.1-2.5,45.1c-0.1,1.9,2.9,1.9,3,0c0.9-15,2-30.1,2.5-45.1c0.1-3.3,0.1-6.6-0.1-9.8c-0.2-3.3-1.1-6.7-0.4-10
				c1.4-6.6,1.9-13.3,2.5-20C12.2,130.8,9.1,130.8,9,132.7L9,132.7z"/>
		</g>
	</g>
	<g class="st8">
		<g>
			<path d="M65.3,132.4c3.6,1,7.3,1.5,11.1,1.6c1.9,0.1,1.9-2.9,0-3c-3.5-0.1-6.9-0.6-10.3-1.5C64.2,129.1,63.5,132,65.3,132.4
				L65.3,132.4z"/>
		</g>
	</g>
	<g class="st8">
		<g>
			<path d="M63.8,131.5c-1.8,4.6-1.5,10.3-2.2,15.2c-0.7,5.4-0.7,10.9-1.1,16.3c-0.5,6-1.1,12.3-2.6,18.1c-1.3,4.8-0.5,8.3,0.4,13.3
				c0.3,1.9,3.2,1.1,2.9-0.8c-0.5-2.7-1.3-5.5-1.1-8.3c0.1-2.4,1-4.7,1.4-7.1c0.8-5,1.6-10.1,2-15.2c0.4-5.2,0.4-10.5,1.1-15.7
				c0.6-4.8,0.4-10.6,2.1-15C67.4,130.5,64.5,129.8,63.8,131.5L63.8,131.5z"/>
		</g>
	</g>
	<g class="st8">
		<g>
			<path d="M74.3,133.4c0,4.8-1.8,9.6-2.3,14.4c-0.5,5.3-1,10.7-1.3,16c-0.3,4.8-0.5,9.7-0.4,14.5c0.1,5.1-1.3,10.5-0.7,15.5
				c0.2,1.9,3.2,1.9,3,0c-0.6-4.7,0.8-9.9,0.7-14.6c-0.1-5.1,0.1-10.3,0.4-15.4c0.3-5,0.8-10.1,1.3-15.1c0.5-5.1,2.3-10.2,2.3-15.3
				C77.3,131.5,74.3,131.5,74.3,133.4L74.3,133.4z"/>
		</g>
	</g>
	<g class="st8">
		<g>
			<path d="M66.1,129.9c-2-0.1-3.6-1.5-5.4-2.1c-1.5-0.5-3-1.4-4.6-1.1c-1.9,0.4-1.1,3.2,0.8,2.9c0.3-0.1,1.5,0.7,1.9,0.8
				c0.9,0.3,1.8,0.5,2.6,1c1.5,0.8,2.9,1.5,4.7,1.5C68.1,133,68.1,130,66.1,129.9L66.1,129.9z"/>
		</g>
	</g>
	<g class="st8">
		<g>
			<path d="M53.3,128.7c0.4,4.1-0.7,7.8-1.4,11.8c-0.5,2.9-0.5,5.8-0.7,8.6c-0.3,3.3-1.2,6.6-1.3,9.9c0,1.5,0.2,2.2,0.3,3.7
				c0.3,2.5,0,4.7-0.4,7.2c-0.9,6.7,0.2,13.4-0.4,20.1c-0.6,6.1-3.7,12.3-2.3,18.4c0.4,1.9,3.3,1.1,2.9-0.8
				c-1.5-6.3,2.4-13.7,2.5-20.2c0.1-3.3-0.2-6.6-0.2-9.9c0-3.7,0.8-7.2,1.2-10.9c0.4-2.9-0.7-5.6-0.6-8.5c0.1-3.1,0.9-6.1,1.2-9.1
				c0.4-3.8,0.6-7.6,1.4-11.3c0.6-3.1,1.1-5.9,0.8-9.1C56.1,126.8,53.1,126.8,53.3,128.7L53.3,128.7z"/>
		</g>
	</g>
	<g class="st8">
		<g>
			<path d="M48.5,205.2c0,0-0.1,0-0.1,0c-0.8,0-1.5,0.7-1.5,1.5c0,0.8,0.7,1.5,1.5,1.5c0,0,0.1,0,0.1,0c0.8,0,1.5-0.7,1.5-1.5
				C50,205.8,49.4,205.2,48.5,205.2L48.5,205.2z"/>
		</g>
	</g>
	<g class="st8">
		<g>
			<path d="M46.8,206.7c0.3,5.4-0.5,13.3,3.7,17.6c2,2,5,2.5,7.7,3.1c4,0.9,8,1.5,12.1,1.4c1.9-0.1,1.9-3.1,0-3
				c-4.5,0.2-15.1-0.2-18.2-4.2c-2.8-3.7-2.1-10.3-2.3-14.8C49.7,204.8,46.7,204.8,46.8,206.7L46.8,206.7z"/>
		</g>
	</g>
	<g class="st8">
		<g>
			<path d="M70.2,190.2c-1.3,1.3-1.1,2.2-0.9,4.1c0.3,3.2,0.4,8,2,10.9c1.8,3.2,6.9,4.4,10.3,3.5c4.7-1.3,6.4-6.5,7.7-10.6
				c2.2-7,2.7-14.3,1.9-21.6c-0.2-1.9-3.2-1.9-3,0c0.9,8,0.2,16.3-2.9,23.8c-1.8,4.3-6.4,8.2-10.6,3.9c-1.1-1.2-3.9-10.5-2.4-11.9
				C73.7,190.9,71.6,188.8,70.2,190.2L70.2,190.2z"/>
		</g>
	</g>
	<g class="st8">
		<g>
			<path d="M83.5,135.8c3.3-0.4,6.6-0.9,9.9-1.5c1.9-0.4,1.1-3.3-0.8-2.9c-3,0.6-6,1.1-9.1,1.4C81.6,133.1,81.5,136.1,83.5,135.8
				L83.5,135.8z"/>
		</g>
	</g>
	<g class="st8">
		<g>
			<path d="M91.9,134.7c4.6,0,9.3,0.1,13.9,0.1c1.9,0,1.9-3,0-3c-4.6,0-9.3-0.1-13.9-0.1C90,131.7,90,134.7,91.9,134.7L91.9,134.7z"
				/>
		</g>
	</g>
	<g class="st8">
		<g>
			<path d="M89.8,134c0.6,7.2-0.7,14.9-0.9,22.1c-0.2,7.9-0.3,15.7-0.5,23.6c0,1.9,3,1.9,3,0c0.2-7.9,0.3-15.7,0.5-23.6
				c0.2-7.3,1.5-14.8,0.9-22.1C92.6,132.1,89.6,132,89.8,134L89.8,134z"/>
		</g>
	</g>
	<g class="st8">
		<g>
			<path d="M82.4,135.3c-0.9,6.4-1,12.9-1.6,19.3c-0.3,2.8,0.4,5.5,0.2,8.2c-0.2,3.1-1.2,6-1.4,9.1c-0.1,2.7-0.1,5.4,0.2,8.2
				c0.5,4.1-1.1,6.9-1.7,10.8c-0.5,3.1-0.2,6.2-0.8,9.3c-0.4,2.4-0.7,4.5-0.2,6.9c0.4,1.9,3.3,1.1,2.9-0.8c-0.6-3.1,0.5-5.8,0.9-8.9
				c0.3-3.3,0.1-6.3,1.2-9.4c1.8-5.4,0.2-10.5,0.5-16.1c0.2-2.8,1-5.4,1.3-8.2c0.3-2.9-0.4-5.7-0.1-8.5c0.6-6.3,0.6-12.7,1.5-19.1
				C85.6,134.2,82.7,133.4,82.4,135.3L82.4,135.3z"/>
		</g>
	</g>
	<g class="st8">
		<g>
			<path d="M106.6,134.5c-0.1-0.2-0.3-0.4-0.4-0.7c-0.9-1.3-2.6-0.7-2.8,0.8c-0.5,5.1-1,10.4-0.9,15.5c0,2.5,0.7,5,0.8,7.5
				c0,2.5-0.8,5-1,7.5c-0.5,5.4,0.7,10.7,0.5,16.1c-0.1,2.2-1,4.1-1.2,6.3c-0.3,2.5,1,5.9-0.3,8.2c-1,1.7,1.6,3.2,2.6,1.5
				c0.9-1.5,1.1-2.7,1-4.4c0-2.7-0.3-4.9,0.3-7.6c1.1-5.4,0-10.7,0-16.2c0-5.6,1.2-10.4,0.6-16c-0.6-6,0.1-12.3,0.7-18.3
				c-0.9,0.3-1.9,0.5-2.8,0.8c0.1,0.2,0.3,0.4,0.4,0.7C105,137.6,107.6,136.1,106.6,134.5L106.6,134.5z"/>
		</g>
	</g>
	<g class="st8">
		<g>
			<path d="M57.9,193.4c-0.1,5.4-1,10-0.2,15.5c0.7,4.5,0.9,10,3.4,14c4.8,7.7,17.7,6.5,25.2,4.6c1.9-0.5,1.1-3.4-0.8-2.9
				c-8.5,2.1-21.2,2.6-23.4-7.9c-0.8-3.5-1.2-7-1.7-10.5c-0.6-4.3,0.5-8.4,0.6-12.7C60.9,191.5,57.9,191.5,57.9,193.4L57.9,193.4z"
				/>
		</g>
	</g>
	<g class="st8">
		<g>
			<path d="M100.4,195.1c-1.1,11.9-5.1,22.9-15.4,30c-1.6,1.1-0.1,3.7,1.5,2.6c11.3-7.8,15.8-19.5,16.9-32.6
				C103.5,193.2,100.5,193.2,100.4,195.1L100.4,195.1z"/>
		</g>
	</g>
	<g class="st8">
		<g>
			<path d="M125.4,134.9c8.9-1.3,24.2,6.7,26.5,15.7c2.4,9.4,1.8,19.4,1.8,29c0,1.9,3,1.9,3,0c0-7,0.3-14-0.4-20.9
				c-0.5-4.9-0.9-10.6-4-14.6c-3.1-4-8.5-6.7-13-8.9c-4.8-2.3-9.4-3.8-14.7-3C122.7,132.2,123.5,135.1,125.4,134.9L125.4,134.9z"/>
		</g>
	</g>
	<g class="st8">
		<g>
			<path d="M123.3,133.5c-0.4,10.2-0.8,20.4-1.1,30.6c-0.4,10.4-0.2,20.9-2.2,31.1c-0.4,1.9,2.5,2.7,2.9,0.8
				c1.9-9.9,1.9-20.1,2.3-30.2c0.4-10.8,0.8-21.6,1.2-32.3C126.4,131.6,123.4,131.6,123.3,133.5L123.3,133.5z"/>
		</g>
	</g>
	<g class="st8">
		<g>
			<path d="M116.4,136.9c1.8-0.8,3.7-1.4,5.6-1.5c1.5-0.1,3-0.1,4.4-0.5c1.9-0.5,1.1-3.4-0.8-2.9c-1.8,0.5-3.7,0.3-5.5,0.6
				c-1.8,0.3-3.6,0.9-5.3,1.7C113.1,135.1,114.6,137.7,116.4,136.9L116.4,136.9z"/>
		</g>
	</g>
	<g class="st8">
		<g>
			<path d="M154,179.8c0,3.3,0.1,6.5,0.1,9.8c0,2.8-0.6,4.8-1.4,7.4c-0.5,1.7-0.4,3.3-0.1,5c0.3,2.5,0.5,4.6-0.9,7.1
				c-0.3,0.6-1,1.3-1.3,1.8c-1.4,2.2-1.9,4-4.3,5.5c-2.2,1.4-4.8,2.2-7.3,2.8c-6.3,1.7-12.8,2.2-19.4,1.8c-1.9-0.1-1.9,2.9,0,3
				c9.9,0.6,27.4,0,33.1-9.9c2.5-4.3,3.8-6.2,3.4-11.2c-0.3-3.7,0.8-6.5,1.2-10c0.5-4.2-0.1-9-0.1-13.2
				C157,177.9,154,177.9,154,179.8L154,179.8z"/>
		</g>
	</g>
	<g class="st8">
		<g>
			<path d="M119.7,195.4c0.7,2.9,1.2,5.7,0.8,8.7c-0.2,1.7-0.7,3.3-0.5,5.1c0.3,2.3,1.3,4.2,1.1,6.5c-0.2,2.1-1,3.7-0.7,5.8
				c0.2,1.9,3.2,1.9,3,0c-0.3-2.2,0.7-4.1,0.9-6.3c0.2-2.5-0.9-4.6-1-7c-0.1-2.3,0.6-4.5,0.6-6.8c0-2.3-0.6-4.6-1.1-6.8
				C122.1,192.7,119.3,193.5,119.7,195.4L119.7,195.4z"/>
		</g>
	</g>
	<g class="st8">
		<g>
			<path d="M114.5,135.1c-1.5,6.8-2.3,13.8-2.3,20.8c0,3.7,0.3,7.4,0.7,11.2c0.2,1.9,0.6,3.8,0.6,5.7c0,2.9-1.1,5-1.6,7.7
				c-1.2,6.3,0,13.4,0.2,19.7c0.3,7.5,0.8,15-1.1,22.4c-0.5,1.9,2.4,2.7,2.9,0.8c1.6-6.2,1.6-12.3,1.4-18.7
				c-0.3-7.4-1.6-15.5-0.5-22.8c0.5-3.5,1.9-6.5,1.7-10.1c-0.2-3.8-0.9-7.5-1.1-11.3c-0.5-8.3,0.3-16.5,2-24.6
				C117.8,134,114.9,133.2,114.5,135.1L114.5,135.1z"/>
		</g>
	</g>
	<g class="st8">
		<g>
			<path d="M112.3,222.9c3.2,0.9,6.3-1.7,9.6-0.1c1.7,0.8,3.3-1.7,1.5-2.6c-1.5-0.7-3-1.1-4.7-1c-0.8,0-1.5,0.1-2.3,0.3
				c-1,0.2-2.4,0.8-3.3,0.5C111.3,219.5,110.5,222.4,112.3,222.9L112.3,222.9z"/>
		</g>
	</g>
	<g class="st8">
		<g>
			<path d="M134.7,149.9c2.5,0.7,5.8,0.6,7.8,2.1c2.2,1.7,3.3,6.6,3.7,9.3c0.3,2.6-0.5,5-0.8,7.6c-0.3,2.8,0.3,5.5,0.6,8.3
				c0.8,9.7-2.1,28.2-14.7,29c-1.9,0.1-1.9,3.1,0,3c13.9-0.8,18.2-18.8,17.8-30.1c-0.1-1.9-0.4-3.7-0.6-5.6c-0.3-3,0.3-5.5,0.7-8.5
				c0.5-3.2-0.4-6.2-1.4-9.2c-0.9-2.4-2-5-4.1-6.6c-2.4-1.8-5.5-1.3-8.3-2.1C133.6,146.4,132.8,149.3,134.7,149.9L134.7,149.9z"/>
		</g>
	</g>
	<g class="st8">
		<g>
			<path d="M132.5,149.7c1.1,4.6-0.2,9.7,0.1,14.5c0.3,5,0.5,9.9,0.4,14.9c-0.1,4.9-0.3,9.9-0.5,14.8c-0.1,2-0.3,4.1,0,6.1
				c0.4,2.5,2,3.8-0.1,6.6c0.9,0.1,1.8,0.2,2.7,0.4c-0.9-2.2-1.1-4-0.6-6.4c0.4-1.9-2.5-2.7-2.9-0.8c-0.7,2.9-0.6,5.2,0.6,8
				c0.5,1.2,1.9,1.4,2.7,0.4c2.6-3.6,0.6-6.1,0.4-10c-0.3-5.6,0.5-11.5,0.6-17.1c0.1-5.6,0-11.2-0.4-16.8c-0.3-5.1,1-10.3-0.2-15.3
				C134.9,147.1,132,147.8,132.5,149.7L132.5,149.7z"/>
		</g>
	</g>
	<g class="st8">
		<g>
			<path d="M138.7,149.8c-2.6,8.4-0.3,16.9-0.5,25.5c-0.1,4.9,1.6,9.7,1.1,14.6c-0.4,4.2,0.7,7.4,0.9,11.6c0.1,1.9,3.1,1.9,3,0
				c-0.1-1.7-0.5-3.2-0.8-5c-0.6-2.9-0.1-5.2,0.1-8c0.3-3.9-1.2-7.5-1.3-11.4c-0.1-3.7,0.4-7.3,0-10.9c-0.7-5.6-1.3-10.1,0.4-15.5
				C142.2,148.7,139.3,147.9,138.7,149.8L138.7,149.8z"/>
		</g>
	</g>
	<g class="st8">
		<g>
			<path d="M171.5,130.8c7-0.2,14.1-0.6,21.1-1.1c1.9-0.1,1.9-3.1,0-3c-7,0.5-14.1,0.9-21.1,1.1
				C169.6,127.9,169.5,130.9,171.5,130.8L171.5,130.8z"/>
		</g>
	</g>
	<g class="st8">
		<g>
			<path d="M190.2,128.1c0.5,1.3-0.6,3.7-0.7,5.1c-0.1,2.1,0.9,5.1-0.3,6.9c-1,1.6,1.6,3.2,2.6,1.5c1.2-2,0.8-4.8,0.7-7
				c-0.1-1.5,0.1-2.9,0.5-4.4c0.2-1.1,0.5-1.9,0.1-3C192.4,125.6,189.5,126.3,190.2,128.1L190.2,128.1z"/>
		</g>
	</g>
	<g class="st8">
		<g>
			<path d="M179.5,143.4c2.4-0.1,4.8-0.2,7.3-0.3c1.9-0.1,3.8,0.1,5.5-0.9c1.7-1,0.2-3.6-1.5-2.6c-1.5,0.9-4.1,0.5-5.8,0.5
				c-1.8,0.1-3.6,0.1-5.4,0.2C177.6,140.5,177.6,143.5,179.5,143.4L179.5,143.4z"/>
		</g>
	</g>
	<g class="st8">
		<g>
			<path d="M178.4,142.3c0.2,7,0.3,14.1,0.3,21.1c0,1.9,3,1.9,3,0c0-7-0.1-14.1-0.3-21.1C181.3,140.4,178.3,140.4,178.4,142.3
				L178.4,142.3z"/>
		</g>
	</g>
	<g class="st8">
		<g>
			<path d="M178.3,164.1c1.4,1.2,3.5,0.7,5.2,0.7c2.8,0,5.6-0.1,8.4-0.1c1.9,0,1.9-3,0-3c-2.1,0-4.3,0.1-6.4,0.1c-1,0-2,0-3,0
				c-0.5,0-1,0-1.5,0c-1.1-0.1-1.3-0.1-0.6,0.2C179,160.7,176.9,162.8,178.3,164.1L178.3,164.1z"/>
		</g>
	</g>
	<g class="st8">
		<g>
			<path d="M190.4,164.2c1.2,2.7,1.9,5.6,2.2,8.5c0.2,1.9,3.2,1.9,3,0c-0.4-3.5-1.3-6.8-2.6-10C192.2,160.9,189.6,162.5,190.4,164.2
				L190.4,164.2z"/>
		</g>
	</g>
	<g class="st8">
		<g>
			<path d="M181.5,174.5c4.1-0.3,8.3-0.6,12.4-1c1.9-0.1,1.9-3.2,0-3c-4.1,0.3-8.3,0.6-12.4,1C179.6,171.7,179.5,174.7,181.5,174.5
				L181.5,174.5z"/>
		</g>
	</g>
	<g class="st8">
		<g>
			<path d="M179.8,173.7c0,2.4,0.4,4.6,0.8,6.9c0.7,3.6,0.3,6.9,0,10.6c-0.3,4-1.7,9.9,0,13.6c0.8,1.7,3.4,0.2,2.6-1.5
				c-0.9-1.9,0-5.1,0.1-7.1c0.1-2.4,0.2-4.8,0.4-7.2c0.2-1.9,0.6-3.8,0.5-5.7c-0.3-3.3-1.5-6.2-1.5-9.5
				C182.7,171.7,179.7,171.7,179.8,173.7L179.8,173.7z"/>
		</g>
	</g>
	<g class="st8">
		<g>
			<path d="M181.3,205.7c4.8-0.2,9.6-0.8,14.4-1.3c1.9-0.2,1.9-3.2,0-3c-4.8,0.4-9.6,1-14.4,1.3
				C179.4,202.8,179.4,205.8,181.3,205.7L181.3,205.7z"/>
		</g>
	</g>
	<g class="st8">
		<g>
			<path d="M194.4,202.6c-0.3,1.6-0.8,3.6-0.6,5.3c0.1,0.9,0.6,1.6,0.7,2.6c0.1,1.1-0.1,2.3-0.2,3.4c-0.3,1.9,2.6,2.7,2.9,0.8
				c0.3-1.7,0.6-3.6,0.2-5.4c-0.2-0.9-0.6-1.6-0.6-2.5c0-1.1,0.3-2.3,0.5-3.4C197.6,201.5,194.7,200.7,194.4,202.6L194.4,202.6z"/>
		</g>
	</g>
	<g class="st8">
		<g>
			<path d="M160.1,131.4c3.8,0.6,7.7,0.7,11.5,0.3c1.9-0.2,1.9-3.2,0-3c-3.6,0.4-7.2,0.3-10.7-0.2
				C159,128.3,158.2,131.2,160.1,131.4L160.1,131.4z"/>
		</g>
	</g>
	<g class="st8">
		<g>
			<path d="M170.7,130.6c-0.2,9.3-0.4,18.6-0.5,28c0,4,1,6.5,1.9,10.4c1,4,0.2,8.3,0,12.3c-0.2,4.1-0.3,8.3-0.2,12.4
				c0.1,2.4,0.4,4.8,0.3,7.2c-0.1,1.9-0.8,3.8-0.9,5.7c-0.1,0.8-0.1,1.6,0.1,2.3c0.7,2.9,1.2,2.2,1.4,6.1c0.1,1.7-0.2,2.6,1,4.1
				c1.2,1.5,3.3-0.6,2.1-2.1c-0.4-0.5,0.5-3.7,0.4-4.5c-0.1-0.9-0.5-1.4-0.8-2.1c-0.3-0.5-0.6-1-0.9-1.5c-0.3-1.6-0.1-3.1,0.4-4.5
				c0.1-1.2,0.3-2.2,0.3-3.4c0-7.8-0.4-15.5,0.1-23.3c0.5-7.4-2.2-13.7-2.1-21c0.1-8.7,0.3-17.3,0.5-26
				C173.8,128.7,170.8,128.7,170.7,130.6L170.7,130.6z"/>
		</g>
	</g>
	<g class="st8">
		<g>
			<path d="M163.9,221.2c11-0.8,21.8-2.7,32.4-5.7c1.9-0.5,1.1-3.4-0.8-2.9c-10.3,3-20.9,4.8-31.6,5.6
				C162,218.3,161.9,221.3,163.9,221.2L163.9,221.2z"/>
		</g>
	</g>
	<g class="st8">
		<g>
			<path d="M160.4,130.7c0.9,4.3,0.1,8.7,0,13c-0.1,3.7,0.1,7.4,0.2,11.2c0.4,7.2,1.6,14.5,1.7,21.7c0.1,7.2-0.2,14.1,0.5,21.3
				c0.6,7.3-1.8,14.9,0.1,22c0.5,1.9,3.4,1.1,2.9-0.8c-1.2-4.5-0.2-8.6,0.2-13.2c0.3-3.6-0.1-7.1-0.4-10.7c-0.8-7.4,0.3-14.7-0.4-22
				c-0.6-7-1.4-14-1.7-21.1c-0.3-7.3,1.3-15.1-0.2-22.2C162.9,128,160,128.8,160.4,130.7L160.4,130.7z"/>
		</g>
	</g>
</g>
<g id="Farben">
	<g>
		<path class="st9" d="M345.6,188c1.9-11.5,16.8-27.9,27.2-32.6c4.2,3.4,19.6,12.3,24.7,14c5.7,1.8,17.8,1,18.4,1.8
			c0.6,0.8,0.8,40.3-3.1,34c-6.9-11.5-23.8,8.9-23.8,8.9c-5-19.2-14-18.6-20.9-17.3c-7.8,1.5-19,6.7-17.7,22.9
			C350.4,220.8,343.1,203.3,345.6,188"/>
	</g>
	<path class="st2" d="M372.8,155.4c0,0,2.5-17,3.1-20.8c0.6-3.9,3.4-18.3,8.6-20c5.3-1.7,9.1-2.5,12.1-0.7c3,1.7,6.8,2.9,10.5,10.4
		c3.7,7.5,4.8,9.9,4.8,9.9l8.8-7.5l4-3.5v5.6l-3,2l-2.8,7.9l-0.4,5.9l1.1,5.9l0.9,0.7l-5.7,19.7c0,0-11.2,0-13.9,0s-16-7.6-16-7.6
		L372.8,155.4z"/>
	<path class="st10" d="M448.7,47.9c0,0,8.9-24.7-5.1-28.4s-8.2-9.2-14.4-8.9c-6.3,0.3-15.9,1.6-17.1,1.3c-1.2-0.2-9.5-3.9-10.6-4.1
		s-66.7,24.8-66.7,36.6s10.3,21,15.7,27.3s16.7,5.2,24.2,6.6s21.9-1.3,26.3-3.8c4.4-2.5,12.1-5.3,12.1-5.3s-5.5-7.1-3.5-8.4
		c2-1.3,7.8-7.1,8.3-8.7c0.5-1.6,6.3-7.6,6.3-7.6l13.3,2.2L448.7,47.9z"/>
	<path class="st10" d="M374.4,143.2l-1.5,12.3c0,0,16,10,19.9,11.5s22.1,3.8,22.1,3.8l2.5-8.3c0,0-12.1,0.9-16-0.1
		s-21.3-13.1-22.8-14.6C377.2,146.3,374.4,143.2,374.4,143.2z"/>
	<path class="st5" d="M269,200.7l38.7-19.7l3.8,2.1l1.5,3.4l-0.3,2.5l-31,15c0,0-1.7,0.4-3.6,0S269,200.7,269,200.7z"/>
	<polygon class="st5" points="321.4,174.5 331.2,178.4 320.5,185.4 320.6,179.8 	"/>
	<path class="st5" d="M322.7,184.7c0,0,1.2,1.7,1.5,2.9c0.3,1.2-0.4,4.9-0.7,5.9c-0.3,1-23.4,13.2-23.4,13.2s-5.4,1.3-6.8,1.2
		s-7.4-2.2-7.8-2.5s-1.6-1.7-1.6-1.7l28.9-14.7c0,0,1.5,1.8,2.2,2s2.7-0.9,3.3-2.6s2.8-3.8,2.8-3.8H322.7z"/>
	<path class="st11" d="M413.8,58.2c0,0,4.8-3.1,4.4-4.7c-0.3-1.5,5.3-6.3,5.3-6.3l3.2-4.3l16.2,5.7l5.5,0.3l-0.6,9.2l0.6,10.4
		l-2.6,5.9l-2.3,8c0,0-3.2,4.5-4.5,4.9c-1.4,0.4-12-0.6-14.3-2c-2.3-1.4-5.9-4.7-7.1-6.8c-1.2-2.1-3.3-7.8-4.6-9.5s-3.5-5.7-3-7.4
		C410.4,60.1,413.8,58.2,413.8,58.2z"/>
	<path class="st11" d="M390.4,212.5c0,0,9.4-9.7,13.5-10.6s8.9,3.2,8.9,3.2s0,16.6-2.4,22.7c-2.3,6.1-6.9,21.1-8.1,23.5
		s-3.7,6.2-3.7,6.2L390,218L390.4,212.5z"/>
	<path class="st11" d="M348.7,216.3c0,0,4-15.5,14-18c10-2.5,17-2.2,19.5,1.6c2.5,3.9,6.7,12.4,6.7,12.4l11.2,48c0,0-0.6,6-1,8.3
		c-0.4,2.4-1.3,5.1-3.5,9.1c-2.2,4-26.1,50.2-26.1,50.2s-1.1,4.4-0.7,5.9s6.3,25.8,6.7,28.3c0.4,2.4,2,10.5,1,13.2
		c-1,2.7-3.7,3.8-5.3,2c-1.6-1.7-8.8-16.1-9.8-17.6c-1.1-1.5-9.5-9.4-11-10.2c-1.4-0.8-3.4-1.9-1.7-5.6c1.7-3.7,6.3-8.5,7.6-12.6
		c1.3-4.1,3.9-23.8,3.9-23.8l2.4-14.1l-26.3,24.6l-21.6,17.2L291,346c0,0-6.4,2.5-6.7-0.2c-0.3-2.7-0.2-7.1,1.5-8.5
		c1.7-1.4,12.6-5.8,14.5-7.7c1.9-1.9,6.9-10.6,8.2-11.5c1.3-0.9,6.9-1.9,10.7-0.7c3.8,1.2,5-4.5,5-4.5l18.9-27.4l16-18.2l10.4-6.8
		L358,237.9l-5.7-17L348.7,216.3z"/>
	<path class="st11" d="M383.7,88.2c0,0-11.1,4.7-15.6,8.4s-17.6,18.2-17.6,18.2L331,140.6l-16.2,23.1c0,0-3.9,5.9-8,8.8
		s-11.9,9.1-11.9,9.1l-5.2,6c0,0,1.4,1,7.2-1.9c5.8-2.9,12.1-5.3,12.1-5.3l4.7,3.7l0.2,6.1c0,0,2.8,0.9,3.7-0.4s3.3-6.6,3.1-9.9
		c-0.2-3.4-1.3-6.8-1.3-6.8l14-11.4c0,0,6.6-7.7,8.4-10.9s5.3-7.4,12.1-11.3c6.8-3.9,19.8-13.4,19.8-13.4s6.2-6.5,8-9.6
		s11.6-3.6,11.6-3.6s5.7,1.6,8.3,4.3c2.7,2.6,7.8,9.7,7.8,9.7l2.7,7.4l13.6-11.6l1.6-10.8l27.4,5.2l11.1,1.6c0,0-5.2-8.7-9.5-12.4
		c-4.2-3.7-7.6-5.1-7.6-5.1l-7.6,2.1c0,0-13,2.5-26,0c-13-2.5-26-10.6-26-10.6L383.7,88.2z"/>
	<path class="st11" d="M471.4,130.6c0,0,7.3,18.5,7.8,28.1c0.6,9.6-1.1,17.1-4.9,17.8s-9.7-0.7-16.9-5.1
		c-7.2-4.4-29.1-20.4-29.1-20.4s-4.6,0-6.2,0c-1.6,0-3.8-2.4-3.6-7.9c0.3-5.5,2.9-14.6,5.2-14.3c2.2,0.3,6.8,7.4,6.8,7.4l2.9,7.6
		c0,0,22.6,4.2,25.7,5.8s5.2,3.1,5.2,3.1l5-20.6L471.4,130.6z"/>
	<path class="st11" d="M391.5,85.7c0,0,10-1.8,11.8-2.9c1.8-1.1,10.3-12.3,10.3-12.3s3.3,9.8,4.5,10.4c1.2,0.5,13.9,8.2,13.9,8.2
		l9.3,6.5c0,0-0.8,1.9-3.2,2.3c-2.4,0.4-19.5,1.9-27.7-1c-8.2-2.9-19.3-11.1-19.3-11.1L391.5,85.7z"/>
	<path class="st2" d="M384.9,88.2l4.9-1.8c0,0,12.8,8.5,25.5,11.2c12.7,2.7,26.8-1.2,26.8-1.2l6.4,4.7c0,0-18.8,5.5-33.6,2.8
		C400.2,101.3,384.9,88.2,384.9,88.2z"/>
	<path class="st2" d="M365.5,253.7c0,0,6.7-9.5,13.1-11.2c6.3-1.7,15.8-1,15.8-1l1.8,9c0,0,2.9,6,2.6,10.4c-0.3,4.3,2.3,6-0.6,11.5
		c-2.9,5.5-29.4,57.3-29.4,57.3s-0.9,2.9-0.9,3.7c0,0.9,7.2,25.1,7.2,25.1s1.8,16.8,1.4,17.5c-0.4,0.7-2.2,3.4-4.1,2.2
		c-1.9-1.2-10.6-18.6-11.3-19c-0.7-0.4-9.4-8.4-11.8-10.2s-0.2-6.1-0.2-6.1l6.9-9.9c0,0,5.4-39.4,6.4-41.4s6.7-22,7.4-23.2
		s2.5-4.4,2.5-4.4l-3.9-4.3L365.5,253.7z"/>
	<path class="st2" d="M368.7,260.6c0,0-13.3,11.3-15.4,13.3c-2.1,2-17,21.8-18.7,23.8s-12.1,18.2-12.1,18.2s-1.3,1.5-4.4,1.1
		c-3.1-0.3-6.9-0.8-8.7,0.3c-1.8,1.1-3.4,3.3-4.3,5.2c-0.8,2-2.1,5.4-3.8,6.4c-1.6,1-13.9,5.7-14.4,6.6s-3.1,6.4-2.6,6.4
		s-0.8,3.9,2.5,4.3c3.3,0.3,10.2-2.6,13.8-4.1c3.6-1.5,13.3-5.9,18.2-9.7c4.9-3.8,37.7-32.3,37.7-32.3l6.4-5.9c0,0,1.6-9.5,2.6-13.1
		c1-3.6,3.6-11.1,3.6-11.1l2.9-5.7L368.7,260.6z"/>
</g>
<g id="Konturen">
	<g>
		<g>
			<path d="M411.3,205.1c-0.4,8.7-2.1,17.5-4.1,26c-2,8.4-4.1,18.3-9.6,25.2c-1.2,1.5,0.9,3.6,2.1,2.1c5.6-7.1,8-16.7,10.1-25.3
				c2.2-9.2,4-18.7,4.5-28.1C414.4,203.2,411.4,203.2,411.3,205.1L411.3,205.1z"/>
		</g>
	</g>
	<g>
		<g>
			<path d="M349,215.9c6.1,18.1,10.5,37.7,24.9,51.3c1.4,1.3,3.5-0.8,2.1-2.1c-14-13.2-18.2-32.4-24.1-50
				C351.3,213.3,348.4,214.1,349,215.9L349,215.9z"/>
		</g>
	</g>
	<g>
		<g>
			<path d="M375,155.8c-0.8-6,0.8-12,1.9-17.9c1.1-6,1.9-12.1,4.5-17.7c0.8-1.7-1.8-3.3-2.6-1.5c-2.7,5.8-3.6,12.1-4.8,18.4
				c-1.1,6.2-2.7,12.4-2,18.7C372.2,157.7,375.2,157.8,375,155.8L375,155.8z"/>
		</g>
	</g>
	<g>
		<g>
			<path d="M419.2,151.8c-0.6-0.9-0.2,0-0.5,0.9c-0.4,1.2-0.7,2.4-1,3.6c-1,3.3-2,6.6-3,9.9c-1.4,4.6-2.8,9.1-4.3,13.7
				c-0.2,0.8,0.3,1.6,1,1.8c14.4,3.9,29.1,6.7,43.8,9c0.6,0.1,1.4,0,1.7-0.7c2.2-5.2,3.9-10.7,4.9-16.3c0.3-1.9-2.5-2.7-2.9-0.8
				c-1,5.3-2.5,10.6-4.6,15.6c0.6-0.2,1.1-0.5,1.7-0.7c-14.7-2.3-29.4-5.1-43.8-9c0.3,0.6,0.7,1.2,1,1.8c1.7-5.3,3.4-10.7,5-16
				c1-3.3,2-6.6,2.9-10c0.3-1,1.3-3.3,0.5-4.4C420.7,148.7,418.1,150.2,419.2,151.8L419.2,151.8z"/>
		</g>
	</g>
	<g>
		<g>
			<path d="M426.7,113.2c14.6,3.7,29.7,5.8,44.7,7.7c-0.5-0.5-1-1-1.5-1.5c-1.5,11.2-3.8,22.3-6.2,33.4c-0.4,1.9,2.5,2.7,2.9,0.8
				c2.4-11.3,4.8-22.7,6.3-34.2c0.1-0.9-0.8-1.4-1.5-1.5c-14.7-1.9-29.5-3.9-43.9-7.6C425.6,109.9,424.8,112.7,426.7,113.2
				L426.7,113.2z"/>
		</g>
	</g>
	<g>
		<g>
			<path d="M425.6,111.4c-1,5.3-1.5,10.7-2.4,16c-0.3,1.9,2.6,2.7,2.9,0.8c0.9-5.3,1.4-10.7,2.4-16
				C428.9,110.3,426,109.5,425.6,111.4L425.6,111.4z"/>
		</g>
	</g>
	<g>
		<g>
			<path d="M347.1,188.4c2.5-12.8,15-26.2,26.5-31.7c-0.6-0.1-1.2-0.2-1.8-0.2c7.2,5.6,16.1,11.2,24.7,14.1c4.7,1.6,10,1.4,14.9,1.6
				c0.9,0,1.8,0.1,2.7,0.1c1,0,0.4-0.4,0.4-0.5c0.4,0.6,0.1,2.2,0.1,2.9c0.2,7.8,0.2,15.7-0.6,23.5c-0.1,1.5-0.3,3.1-0.6,4.6
				c-0.1,0.3-0.4,1.2-0.4,1.5c0,0.1-0.2,0.3-0.2,0.4c1.2,0.1,1.6-0.1,1-0.7c-0.1-0.2-0.2-0.4-0.4-0.6c-1.1-2.8-5.5-3.5-8.1-3.1
				c-6.9,1.1-13.2,7.5-17.5,12.7c0.8,0.2,1.7,0.4,2.5,0.7c-3.1-11.3-9-20.7-21.8-18.5c-4.9,0.8-9.8,2.7-13.6,6.2
				c-2.1,2-3.7,4.4-4.8,7c-0.6,1.6-1.1,3.3-1.3,5c-0.2,1.7,0.4,4.5-0.1,6c0.8-0.2,1.7-0.4,2.5-0.7c-1.7-2.1-2.4-7-3-9.7
				C346.7,202.2,346.1,195.3,347.1,188.4c0.3-1.9-2.6-2.7-2.9-0.8c-1.1,7.4-0.4,14.9,1.3,22.1c0.8,3.3,1.5,8.3,3.8,11
				c0.8,1,2.2,0.3,2.5-0.7c0.9-2.4-0.1-6,0.6-8.5c0.7-2.6,1.9-5.1,3.8-7.1c3.1-3.4,7.5-5.3,11.9-6.2c3.3-0.7,6.9-1.1,10.1,0.5
				c5.7,2.8,7.9,10,9.4,15.6c0.3,1,1.8,1.6,2.5,0.7c3.7-4.5,11.8-13.6,18.3-11.8c2.1,0.6,3.6,5,6.2,3.8c1.7-0.8,1.9-3.7,2.1-5.3
				c1.2-8.1,1.2-16.6,1-24.8c0-1.6,0.4-4.7-0.3-6.2c-1.3-2.5-6.5-1.6-8.7-1.6c-6.8-0.2-12-1.5-18.1-4.7c-5.7-3-11.5-6.2-16.6-10.1
				c-0.6-0.4-1.1-0.6-1.8-0.2c-12.3,5.8-25.3,19.9-27.9,33.5C343.8,189.5,346.7,190.3,347.1,188.4L347.1,188.4z"/>
		</g>
	</g>
	<g>
		<g>
			<path d="M424.7,121.3c-5.1,3.4-9.4,8.2-13.9,12.3c0.8,0.2,1.7,0.4,2.5,0.7c-3.1-9.2-9.5-21.7-20.3-22.9
				c-12.8-1.3-16.7,10.3-18.1,20.5c-0.3,1.9,2.7,1.9,3,0c1.2-8.8,5-20.4,16.7-17.1c8.4,2.4,13.3,12.7,15.9,20.3
				c0.4,1.1,1.6,1.4,2.5,0.7c4.3-3.9,8.4-8.6,13.3-11.8C427.8,122.8,426.3,120.2,424.7,121.3L424.7,121.3z"/>
		</g>
	</g>
	<g>
		<g>
			<path d="M446.9,49c-0.3,4.8-0.9,9.5-0.5,14.3c0.1,1.2,0.4,2.4,0.6,3.6c0.3,2.6-0.4,3.6-1.6,5.5c-1.7,2.7-2.1,5.3-3,8.4
				c-1.9,6.4-8.2,6.8-13.7,4.8c-5.2-1.9-9.3-5.1-11.2-10.4c-1-2.6-1.5-5.5-3-7.8c-1.1-1.7-3.8-5-1.1-6.4c0.8-0.4,2.7,0.3,3.6,0.4
				c1.9,0.3,2.7-2.6,0.8-2.9c-2.5-0.4-6.3-1.5-8.3,0.5c-3.1,3,0.8,7.3,2.4,9.8c2.5,4,2.5,9.1,5.6,12.8c3.4,4.2,9.1,7,14.4,7.7
				c4.1,0.6,8.8,0,11.5-3.5c1.6-2,1.9-4.5,2.5-6.9c0.7-2.5,1.2-3.7,2.9-5.7c0.3-0.4,0.9-0.7,1.2-1.2c0.9-1.6,0.7-3.1,0.3-4.8
				c-0.6-2.8-1-5.2-1-8.1c0-3.5,0.4-6.9,0.6-10.3C450.1,47.1,447.1,47.1,446.9,49L446.9,49z"/>
		</g>
	</g>
	<g>
		<g>
			<path d="M386.3,11.8c2.8,1.2,5.2,1,8-0.2c3.2-1.4,5.7-3,9.2-1.6c2,0.8,3.8,2,5.9,2.7c3.8,1.2,7.7,1.2,11.5,0.4
				c3.3-0.7,6.3-1.8,9.5-0.5c2.2,0.9,3.9,2.7,5.7,4.2c2.2,1.9,4.4,3.4,7.2,4.3c3.1,1,5.3,1.7,6.4,5.1c0.4,1.2,0.3,2.3,0.3,3.6
				c-0.1,5,0.5,13.3-2.6,17.5c-1.1,1.6,1.5,3.1,2.6,1.5c3.2-4.4,2.8-12.5,3-17.6c0.1-2.6,0.2-5.1-1-7.4c-2.1-4-5-4.5-8.9-5.9
				c-4.2-1.5-6.9-5.6-10.8-7.6c-4.2-2.2-7.9-0.8-12.2,0.1c-3.9,0.8-7.6,0.6-11.3-1c-2.1-0.9-4.1-2.4-6.4-2.9
				c-5.1-1.1-9.9,4.9-14.6,2.9C386,8.4,384.5,11,386.3,11.8L386.3,11.8z"/>
		</g>
	</g>
	<g>
		<g>
			<path d="M366.6,15.4c0.8,8.1,9.2,6.2,14.6,4.4c3.8-1.3,7-1.1,10.2,1.4c1.3,1,2.4,2.3,3.9,3c3.3,1.5,6.7,0.2,9.9-0.9
				c2.4-0.8,4.9-1.7,7.5-1.7c3.3,0,5.9,1.6,8.8,2.7c4,1.6,8.1,1.4,12.3,2.5c5.3,1.4,5.9,5.1,6.5,9.9c0.4,3.1,0.6,6.4,0,9.5
				c-0.3,1.9,2.5,2.7,2.9,0.8c1-5.4,0.6-12-1.3-17.2c-2.6-7.3-10.9-5.7-17-7.5c-4.5-1.3-8-4-12.9-3.7c-5,0.3-10.5,4.3-15.1,2.4
				c-3.8-1.6-6-4.8-10.4-5.2c-3.7-0.3-16.1,6.3-16.8-0.4C369.4,13.5,366.4,13.5,366.6,15.4L366.6,15.4z"/>
		</g>
	</g>
	<g>
		<g>
			<path d="M411.4,67.2c-0.9,2.7-6.3,4.6-8.6,5.6c-4.3,1.9-8.9,3.4-13.6,4.5c-1.9,0.4-3.9,0.9-5.9,0.9c-2.5,0-4.9-1.1-7.4-1.3
				c-7.3-0.7-14.3,5.2-21.4,2.1c-1.8-0.7-3.3,1.8-1.5,2.6c8.4,3.6,15.9-2.9,24.4-1.4c5.1,0.9,8.6,1.1,13.7-0.2
				c5.2-1.3,10.3-3.1,15.2-5.4c2.8-1.4,7-3.2,8-6.5C414.9,66.2,412,65.4,411.4,67.2L411.4,67.2z"/>
		</g>
	</g>
	<g>
		<g>
			<path d="M409.2,63.8c-7.6,5.3-20.2,7.1-29.3,6.3c-5.5-0.5-10.2-3.9-15.8-3.5c-2.8,0.2-5.5,1.3-8.2,1.8c-5.7,1.1-9.6-1.4-13.9-4.7
				c-1.5-1.2-3,1.4-1.5,2.6c6.6,5.1,11.3,6.1,19.3,4.2c4.8-1.2,8.5-0.7,13.2,0.9c2.3,0.8,4.5,1.4,6.9,1.6c9.7,0.8,22.7-1.1,30.8-6.7
				C412.3,65.2,410.8,62.6,409.2,63.8L409.2,63.8z"/>
		</g>
	</g>
	<g>
		<g>
			<path d="M448,47.5c-3.6,1.1-9.5-1.7-12.8-2.9c-5-1.7-10-3.7-14.7-6.3c-1.7-1-3.2,1.6-1.5,2.6c5.2,3,10.9,5.2,16.6,7
				c3.7,1.2,9.2,3.7,13.3,2.5C450.7,49.9,449.9,47,448,47.5L448,47.5z"/>
		</g>
	</g>
	<g>
		<g>
			<path d="M403.9,53.4c7.1,0.8,19.7-0.9,23.3-8.2c0.8-1.7-1.7-3.2-2.6-1.5c-3.1,6.2-14.7,7.4-20.7,6.7
				C402,50.2,402,53.2,403.9,53.4L403.9,53.4z"/>
		</g>
	</g>
	<g>
		<g>
			<path d="M420.2,38.2c-7-2.6-12.7,2-19.5,3.1c-5.3,0.8-9.2-2.5-14.1-3.5c-3-0.7-5.9-0.3-8.8,0.6c-3.8,1.1-7.6,3.2-11.7,3.2
				c-4.2,0-7.9-2.9-11.7-4.3c-7.3-2.8-15.1-3.3-22.8-2c-1.9,0.3-1.1,3.2,0.8,2.9c9.2-1.5,17.6,0.1,26,4.2c6.3,3,10.8,2.1,17.3-0.2
				c4.2-1.4,7.9-2.3,12.3-0.8c3,1.1,5.9,2.7,9.1,3c7.7,0.8,14.6-6.1,22.2-3.3C421.2,41.7,422,38.9,420.2,38.2L420.2,38.2z"/>
		</g>
	</g>
	<g>
		<g>
			<path d="M437.5,45.8c-2.2-4.6-2.8-10.3-8.1-12.1c-6.1-2.1-12.7-3.6-19.1-4.4c-3.6-0.5-7-0.4-10.7,0.1c-3.8,0.5-7.7,1.3-11.6,0.6
				c-2.8-0.5-5.3-1.8-7.9-2.9c-4.9-1.9-9.2-2.4-14.5-1.8c-6.4,0.8-12.8,2.4-18.7-1.2c-1.7-1-3.2,1.6-1.5,2.6
				c9.3,5.6,19-0.4,28.8,1.6c5.1,1,9.4,4.2,14.7,4.8c4.9,0.5,9.7-0.9,14.6-1.2c7-0.4,14.3,1.6,21,3.4c1.7,0.5,4,0.8,5.4,1.8
				c2.8,2,3.4,7.1,4.9,10.1C435.7,49.1,438.3,47.6,437.5,45.8L437.5,45.8z"/>
		</g>
	</g>
	<g>
		<g>
			<path d="M404.6,50.6c-2.3-1.3-4.8-1.1-7.3-1.3c-2.8-0.2-5.3-1-8-1.7c-5.8-1.4-9.9-1.3-15.5,0.5c-2.6,0.8-5.3,1.8-8,2.2
				c-4,0.6-7.7-2.1-11.4-3.4c-9.6-3.5-18.9-1.4-28.7-3.1c-1.9-0.3-2.7,2.6-0.8,2.9c9.4,1.6,18.6-0.3,27.8,2.8
				c6.1,2.1,9.9,4.8,16.3,3.1c5.8-1.5,10.5-3.9,16.6-2.7c2.9,0.5,5.6,1.5,8.5,2.1c2.8,0.5,6.3-0.3,8.9,1.2
				C404.8,54.1,406.3,51.6,404.6,50.6L404.6,50.6z"/>
		</g>
	</g>
	<g>
		<g>
			<path d="M428.9,88.8c5.2,3.3,10.1,7.2,15.3,10.6c6,4,11.4,7.8,15.8,13.7c8.1,10.7,12.8,23.9,15.9,36.8c0.8,3.6,1.6,7.2,2.1,10.8
				c0.9,6.5,0.1,16.8-9.5,14.7c-5.6-1.2-10.9-5.6-15.7-8.5c-6.9-4.2-13.4-8.9-19.7-13.9c-1.4-1.1-2.9-2.8-4.4-3.5
				c-2.2-1.1-3.9,0.6-6.3,0c-2.4-0.6-2.2-1.3-2.3-3.7c-0.1-1.5,0-3.1,0.1-4.6c0.2-2.7,0.6-7.7,2.7-9.8c3.1-3.1,5.4,3.5,6.5,5.9
				c0.9,2.2,1.8,4.4,2.5,6.7c0.2,0.7,0.8,1,1.4,1.1c13.2,1.2,27,5.6,37.6,13.7c1.5,1.2,3-1.4,1.5-2.6c-11.1-8.4-25.4-12.8-39.1-14.1
				c0.5,0.4,1,0.7,1.4,1.1c-1.4-4.5-3.6-13-8.2-15.4c-5.3-2.7-7.9,4.9-8.7,8.6c-0.9,4.2-2.6,12.9,1.7,15.7c1.3,0.9,2.8,1.2,4.3,0.9
				c1.1-0.2,2-0.9,3.1-1c0.7-0.1-1.4-0.6-0.1-0.2c2.7,0.9,5.8,4.6,8,6.3c9,6.9,18.9,14.2,29.3,18.9c9.7,4.4,17.4-1.6,17.3-11.9
				c-0.2-13.4-5.3-28.2-10.9-40.1c-4.1-8.8-9.7-17.3-17.5-23.3c-7.1-5.5-15.1-10.6-22.6-15.4C428.7,85.1,427.2,87.7,428.9,88.8
				L428.9,88.8z"/>
		</g>
	</g>
	<g>
		<g>
			<path d="M390.3,212c-1.7-7.5-2.3-16.1-8.2-21.6c-1.4-1.3-3.5,0.8-2.1,2.1c5.5,5.2,5.9,13.4,7.4,20.3
				C387.8,214.7,390.7,213.9,390.3,212L390.3,212z"/>
		</g>
	</g>
	<g>
		<g>
			<path d="M373.2,141.9c3.1,7.5,10.8,13.5,17.7,17.3c4.4,2.4,9.7,4.8,14.8,5.2c3.8,0.3,7.9-0.8,11.7-0.9c1.9,0,1.9-3,0-3
				c-3.4,0-6.8,0.8-10.2,0.9c-4.5,0.2-9.6-2.1-13.5-4.1c-6.5-3.3-14.7-9.2-17.6-16.2C375.4,139.4,372.5,140.2,373.2,141.9
				L373.2,141.9z"/>
		</g>
	</g>
	<g>
		<g>
			<path d="M410.4,134.6c0,3.5-1.5,7.3-2.6,10.6c-1.8,5.2-3.9,10.3-6.7,15.1c-1,1.7,1.6,3.2,2.6,1.5c2.9-5,5.2-10.3,7-15.8
				c1.2-3.5,2.7-7.6,2.7-11.4C413.4,132.7,410.4,132.7,410.4,134.6L410.4,134.6z"/>
		</g>
	</g>
	<g>
		<g>
			<path d="M377.9,132.2c4-11,16.4-6.2,22.6-0.8c3.4,2.9,6.5,6.2,9.1,9.7c0.5,0.7,1.3,0.9,2.1,0.5c2.6-1.3,5-2.8,7.6-4.1
				c1.7-0.9,0.2-3.4-1.5-2.6c-2.6,1.3-5,2.8-7.6,4.1c0.7,0.2,1.4,0.4,2.1,0.5c-4.1-5.6-9.3-11.2-15.4-14.6
				c-7.8-4.3-18.4-2.7-21.8,6.4C374.3,133.3,377.2,134,377.9,132.2L377.9,132.2z"/>
		</g>
	</g>
	<g>
		<g>
			<path d="M361.4,292.3c-10.1,10.9-21.1,21-32.7,30.3c-3.7,2.9-7.3,5.8-11,8.7c-5.3,4.1-10,6-16.2,8.4c-2.9,1.1-5.5,2.6-8.3,3.8
				c-1.2,0.6-3.7,2-5.2,1.9c-3.1-0.2-2.5-2.6-1.7-5c1.4-4.3,6.2-4.9,10-6.5c3.3-1.4,6.2-3.1,8.3-6.1c2.7-3.9,3.3-10,9.2-10
				c2.2,0,5.2,1.7,7.4,0.9c2.1-0.8,3.6-3.9,4.7-5.6c3.3-4.8,6.5-9.6,9.8-14.4c9.5-13.5,20.2-28.5,34.6-37.1c1.7-1,0.2-3.6-1.5-2.6
				c-13.8,8.2-24,22-33.3,34.8c-4.1,5.7-8,11.6-12,17.5c-0.8,1.1-1.8,3.3-2.9,4.1c-1.5,1-4.6-0.6-6.8-0.6c-3.2-0.1-5.8,1.3-7.7,3.8
				c-1.4,1.9-2.1,4.2-3.3,6.2c-1.8,3.1-4.4,4.9-7.7,6.3c-2.8,1.2-7.7,2.1-9.9,4.5c-1.7,1.9-2.8,5.8-2.7,8.3c0.1,6.1,6.4,4.6,10.2,3
				c3.6-1.5,6.9-3.5,10.5-4.8c5.4-1.9,9.9-3.6,14.4-7.1c16.2-12.5,32-25.5,45.9-40.6C364.8,293,362.7,290.8,361.4,292.3L361.4,292.3
				z"/>
		</g>
	</g>
	<g>
		<g>
			<path d="M387.5,214.4c2.5,9.4,4.5,18.9,6.4,28.4c1.7,8.7,5.6,19.6,3.2,28.5c-0.7,2.6-2.6,5.2-3.9,7.6c-2,3.7-4.1,7.5-6.1,11.2
				c-5.5,10.3-10.9,20.6-15.8,31.1c-1.4,3.1-4.6,7.9-4.5,11.3c0,1.6,1,3.5,1.4,5c2.3,8.5,4.5,17.1,5.9,25.8
				c0.6,3.6,1.4,7.6,0.9,11.3c-0.5,4.3-3.5,1.5-5-1c-2.4-3.9-3.7-8.4-6-12.4c-2.8-4.8-6.5-9-11.2-12c-1.4-0.9-3.4-1.3-3.5-3.1
				c0-1,1.3-2.7,1.8-3.6c1.4-2.3,3.1-4.5,4.6-6.8c1.6-2.4,2.8-4.6,3.2-7.5c1.3-9.3,2.3-18.6,3.9-27.8c2-11.4,3.9-24.2,9.8-34.4
				c1-1.7-1.6-3.2-2.6-1.5c-5.5,9.4-7.5,21.1-9.4,31.6c-1.8,9.9-3.3,19.9-4.4,30c-0.3,3.2-1.2,5.3-3,8.1c-2.2,3.4-7.3,8.3-7,12.7
				c0.1,1.5,0.8,2.2,1.9,3c3.2,2.6,6.8,4.2,9.6,7.5c3.9,4.5,5.9,9.9,8.4,15.2c1.7,3.5,8.8,11.8,11.4,4.4c1.1-3.2,0.4-7.1,0-10.3
				c-0.6-4.9-1.6-9.8-2.7-14.6c-1-4.5-2.2-9.1-3.4-13.6c-0.5-1.9-2.1-4.9-1.9-6.9c0.1-1.1,2-4.3,2.7-5.7c1.2-2.8,2.6-5.6,3.9-8.3
				c3-6.1,6.1-12.2,9.2-18.2c4.2-8.1,8.7-16,13.1-24c4.3-7.7,1.2-17.9-0.3-25.9c-2.4-12.1-4.7-24.2-7.9-36.1
				C389.9,211.8,387,212.6,387.5,214.4L387.5,214.4z"/>
		</g>
	</g>
	<g>
		<g>
			<path d="M331.4,55.6c4.7-1.7,7.9,2.3,11.7,4.1c2.2,1.1,4.6,1.6,7.1,1.7c7.3,0.3,14.4-2.4,21.8-1c6.5,1.2,12.1,3.3,18.9,2.6
				c6.6-0.7,13.1-2.9,19.8-1.9c1.9,0.3,2.7-2.6,0.8-2.9c-6.1-0.9-11.8,0.4-17.8,1.4c-4.5,0.7-8.4,0.9-12.9-0.1
				c-3.4-0.7-6.7-1.9-10.2-2.4c-7.7-1-15.6,2.7-23.2,0.9c-6-1.4-10.1-7.8-16.8-5.3C328.8,53.4,329.6,56.3,331.4,55.6L331.4,55.6z"/>
		</g>
	</g>
	<g>
		<g>
			<path d="M411.4,61.1c4.5-1.8,7.9-5.3,9.5-9.9c0.6-1.8-2.3-2.6-2.9-0.8c-1.2,3.5-3.9,6.4-7.4,7.8
				C408.8,58.9,409.6,61.8,411.4,61.1L411.4,61.1z"/>
		</g>
	</g>
	<g>
		<g>
			<path d="M383.8,89.5c15.5,16.6,44.3,20.2,65,13.1c1.8-0.6,1-3.5-0.8-2.9c-19.8,6.8-47.3,3.6-62.1-12.3
				C384.6,85.9,382.5,88.1,383.8,89.5L383.8,89.5z"/>
		</g>
	</g>
	<g>
		<g>
			<path d="M389.6,87.7c15.3,11.5,35.2,15.3,53.7,10.5c1.9-0.5,1.1-3.4-0.8-2.9c-17.8,4.7-36.7,0.9-51.4-10.2
				C389.6,84,388.1,86.6,389.6,87.7L389.6,87.7z"/>
		</g>
	</g>
	<g>
		<g>
			<path d="M412.6,69.7c-2.7,4.1-4.7,8.3-8.9,11c-2.9,1.9-6.1,2.2-9.4,2.8c-4,0.7-7.8,1.9-11.5,3.4c-15.5,6.2-25.7,17.2-35.9,30
				c-7.9,9.9-15.2,20.2-22.5,30.5c-3.3,4.7-6.6,9.4-9.8,14.1c-1.6,2.3-3,5.1-4.9,7.1c-4,4.1-9.9,7-14.4,10.7
				c-2.7,2.2-8.2,6.3-6.8,10.5c0.3,1,1.3,1.3,2.2,0.9c6.4-3,12.7-6.1,19.1-9.1c-0.7-0.3-1.5-0.6-2.2-0.9c0.6,2.3,2.1,1.8,3.6,3.1
				c2,1.7,0.5,3.4,1,5.6c0.6,2.8,3.9,4.1,6.3,2.1c2.5-2,2.9-7.8,3.4-10.6c0.7-3.8,0.6-5.7-2.5-8.4c-0.1,0.8-0.2,1.6-0.3,2.4
				c5.5-3.9,11-8,15.8-12.8c2.4-2.4,4.6-5.1,6.5-7.9c2.1-3.3,3.4-6.9,6.6-9.4c5.5-4.2,12.2-7.2,17.9-11.1
				c5.6-3.8,10.9-8.1,15.3-13.3c1.2-1.5-0.9-3.6-2.1-2.1c-4.8,5.6-10.6,10.1-16.7,14.2c-5.2,3.4-11.2,6.1-16.2,9.9
				c-5,3.8-7,10.5-11.1,15.2c-5,5.7-11.2,10.3-17.4,14.8c-0.7,0.5-1.1,1.7-0.3,2.4c2.5,2.2,2.3,3,1.7,6c-0.3,1.7-0.8,7.2-2.2,8.3
				c-2.4,1.9-1.2-3.8-1.4-4.8c-0.6-2.6-4.3-2.4-4.8-4.2c-0.3-1-1.3-1.3-2.2-0.9c-6.4,3-12.7,6.1-19.1,9.1c0.7,0.3,1.5,0.6,2.2,0.9
				c-1.3-3.9,9.7-10.6,12.1-12.3c2.9-2.1,6.5-4,8.9-6.8c5.2-6.1,9.4-13.6,14-20.1c7.5-10.6,15-21.2,23.1-31.3
				c5.1-6.4,10.2-13,16.4-18.3c6.3-5.4,14.1-9.4,22-12c6.5-2.1,13.7-1.8,19.2-6.2c3.7-3,5.8-7,8.3-10.9
				C416.2,69.6,413.6,68.1,412.6,69.7L412.6,69.7z"/>
		</g>
	</g>
	<g>
		<g>
			<path d="M320.8,187c3.9-2.3,8-4.4,11.9-6.9c0.9-0.6,1-2,0-2.6c-4.2-2.2-8.5-3.8-13.1-5c-1.9-0.5-2.7,2.4-0.8,2.9
				c4.3,1.1,8.4,2.7,12.3,4.7c0-0.9,0-1.7,0-2.6c-3.9,2.5-7.9,4.6-11.9,6.9C317.7,185.4,319.2,188,320.8,187L320.8,187z"/>
		</g>
	</g>
	<g>
		<g>
			<path d="M312.3,187.7c-8.4,4.6-17.2,8.7-26,12.7c-2.4,1.1-4.9,2.7-7.4,2.5c-3.3-0.3-7-2.3-10.1-3.4c0.1,0.9,0.2,1.8,0.4,2.7
				c7.5-4,15-8.1,22.5-12c1.7-0.9,0.2-3.5-1.5-2.6c-7.6,3.9-15.1,7.9-22.5,12c-1.2,0.7-0.8,2.3,0.4,2.7c3.4,1.2,7.1,3.1,10.7,3.6
				c2.4,0.3,4.4-0.9,6.6-1.9c9.6-4.2,19.2-8.8,28.5-13.9C315.5,189.3,314,186.8,312.3,187.7L312.3,187.7z"/>
		</g>
	</g>
	<g>
		<g>
			<path d="M322.4,186.7c1,1.2,0.9,4.4,0.1,5.6c-0.2,0.4-0.8,0.6-1.1,0.9c-1,0.8-2.2,1.4-3.3,2.1c-3.2,1.9-6.4,3.6-9.7,5.2
				c-3.2,1.6-6.5,3.2-9.8,4.5c-3.1,1.2-12.1,2.6-13.2-2.3c-0.4-1.9-3.3-1.1-2.9,0.8c1,4.4,7.9,6,11.6,5.8c5.3-0.3,11.1-3.9,15.8-6.2
				c6.2-3.1,22.3-9.1,14.7-18.5C323.3,183.1,321.2,185.2,322.4,186.7L322.4,186.7z"/>
		</g>
	</g>
	<g>
		<g>
			<path d="M299.2,188c-14.5,9.1-27.6,18.9-44,24.6c-1.8,0.6-1,3.5,0.8,2.9c16.6-5.8,30-15.7,44.7-24.9
				C302.3,189.5,300.8,186.9,299.2,188L299.2,188z"/>
		</g>
	</g>
	<g>
		<path d="M257.7,214.2c-2.2,2.5-20.8,11.7-21.5,10.7c-0.9-1.2,2.8-4.3,2.2-4.7c-0.4-0.3-4.4-0.9-4.7-2.2c-0.2-1.2,16.4-4.3,23.2-6"
			/>
	</g>
	<g>
		<g>
			<path d="M366.9,254.1c1.6-4,6.7-6.9,10.4-8.7c5.4-2.6,11.4-3.7,17.1-1.6c1.8,0.7,2.6-2.2,0.8-2.9c-10-3.7-27,1.9-31.2,12.4
				C363.3,255.1,366.2,255.9,366.9,254.1L366.9,254.1z"/>
		</g>
	</g>
</g>
<g id="Papier">
	<polygon class="st7" points="420.2,158.6 413.8,179.3 423.8,181.6 425.5,160 	"/>
	<path class="st7" d="M421.8,153l-8,26.3c0,0,16.1,3.8,21.5,4.8c4.9,1,19.6,3.4,19.6,3.4s2-5.4,2.5-7.2c0.4-1.5,1.4-6.1,1.4-6.1
		s-8.9-5.4-10.9-6.6c-4-2.5-8.3-6-10.5-7.8c-5-3.9-8.8-8-10.2-8c-0.6,0-1.9,0.8-3,1.1C423.4,153.1,421.8,153,421.8,153z"/>
	<path class="st7" d="M428.3,113.6c0,0,16.6,3.5,22.1,4.4c5.1,0.8,19.4,2.7,19.4,2.7s-1.9,11.8-2.7,15.7c-0.7,3.7-3,14.7-3,14.7
		s-7.4-4.1-15.2-6.1c-7.4-1.9-14.5-2.8-14.5-2.8s-1.8-5.9-3.2-9c-2.2-4.7-4.9-5.6-4.9-5.6L428.3,113.6z"/>
</g>
</svg>
