<svg width="208" height="157" viewBox="0 0 208 157" fill="none" xmlns="http://www.w3.org/2000/svg">
<path d="M1.27344 31.3552C5.58644 21.5256 10.2057 14.8055 20.5654 10.4264C33.1401 5.11086 48.0645 2.74601 61.6046 1.54038C86.1522 -0.645361 104.043 6.89377 120.533 24.8076C137.102 42.8077 148.085 63.682 148.36 88.5295C148.735 122.41 125.601 148.812 92.764 154.531C64.5225 159.45 39.393 151.08 30.2698 121.852C20.5613 90.7489 30.3523 55.2553 62.3646 42.5211C80.118 35.459 100.279 34.4112 119.13 33.7521C139.622 33.0356 160.127 33.3387 180.104 38.4289C186.944 40.1718 206.47 42.5021 206.47 52.4009" stroke="#F9D7C0" stroke-width="2" stroke-linecap="round" stroke-linejoin="round"/>
<path d="M1.27344 31.3552C5.58644 21.5256 10.2057 14.8055 20.5654 10.4264C33.1401 5.11086 48.0645 2.74601 61.6046 1.54038C86.1522 -0.645361 104.043 6.89377 120.533 24.8076C137.102 42.8077 148.085 63.682 148.36 88.5295C148.735 122.41 125.601 148.812 92.764 154.531C64.5225 159.45 39.393 151.08 30.2698 121.852C20.5613 90.7489 30.3523 55.2553 62.3646 42.5211C80.118 35.459 100.279 34.4112 119.13 33.7521C139.622 33.0356 160.127 33.3387 180.104 38.4289C186.944 40.1718 206.47 42.5021 206.47 52.4009" stroke="white" stroke-width="2" stroke-linecap="round" stroke-linejoin="round"/>
</svg>
