<svg width="44" height="42" viewBox="0 0 44 42" fill="none" xmlns="http://www.w3.org/2000/svg">
<path d="M28.5333 4.70348C21.7705 -0.714375 17.3446 1.88646 9.90427 4.97582C-2.01285 14.78 1.23883 16.4796 3.71724 27.648C4.58369 31.5525 7.95189 37.084 11.808 39.2905C16.8095 42.1526 22.2939 39.2905 27.5815 39.2905C38.7418 39.2905 45.6344 23.9785 40.7714 14.78C38.398 10.2906 32.1502 7.60106 28.5333 4.70348Z" stroke="#F9D7C0" stroke-width="2" stroke-linecap="round" stroke-linejoin="round"/>
<path d="M28.5333 4.70348C21.7705 -0.714375 17.3446 1.88646 9.90427 4.97582C-2.01285 14.78 1.23883 16.4796 3.71724 27.648C4.58369 31.5525 7.95189 37.084 11.808 39.2905C16.8095 42.1526 22.2939 39.2905 27.5815 39.2905C38.7418 39.2905 45.6344 23.9785 40.7714 14.78C38.398 10.2906 32.1502 7.60106 28.5333 4.70348Z" stroke="white" stroke-width="2" stroke-linecap="round" stroke-linejoin="round"/>
</svg>
